<svg id="Layer_1" data-name="Layer 1" xmlns="http://www.w3.org/2000/svg" viewBox="0 0 1000 1000"><defs><style>.cls-1{fill:#ffe2d9;}.cls-2{fill:#ffece5;}.cls-3{fill:#f97171;}.cls-4{fill:#fff;}.cls-5{fill:#f99192;}.cls-6{fill:#3a3144;}.cls-10,.cls-11,.cls-14,.cls-16,.cls-17,.cls-7,.cls-9{fill:none;stroke-miterlimit:10;}.cls-7{stroke:#1ca591;}.cls-16,.cls-7{stroke-width:50px;}.cls-8{fill:#71d2c1;}.cls-14,.cls-17,.cls-9{stroke:#71d2c1;}.cls-9{stroke-width:40px;}.cls-10{stroke:#3e83d6;}.cls-10,.cls-11{stroke-width:80px;}.cls-11{stroke:#4f8ae0;}.cls-12{fill:#4f8ae0;}.cls-13{fill:#3e83d6;}.cls-14{stroke-width:32px;}.cls-15{fill:#3eb7b2;}.cls-16{stroke:#3eb7b2;}.cls-17{stroke-linecap:round;stroke-width:6px;}.cls-18{fill:#ffd8c5;}.cls-19{fill:#fffdfd;}</style></defs><title>Flat Illustration</title><rect class="cls-1" x="444.98" y="84.04" width="366.51" height="593.71" rx="67.39"/><rect class="cls-2" x="421.79" y="84.04" width="366.51" height="593.71" rx="72.13"/><circle class="cls-3" cx="605.05" cy="262.72" r="92.64"/><circle class="cls-4" cx="605.05" cy="248.29" r="35.57"/><ellipse class="cls-4" cx="605.05" cy="317.02" rx="75.06" ry="38.34"/><path class="cls-5" d="M271,860.9v51.29a3.77,3.77,0,0,0,3.77,3.77h68.7a4.06,4.06,0,0,0,3.9-2.83c1.16-3.66,1.66-9.91-6.82-12.58-12.37-3.9-27.2-20.14-19.59-50.12"/><path class="cls-3" d="M320.75,879.1c-2.23-7.25-2.69-16.32-.13-27.26l-31.94,5.36L271,860.9v18.2Z"/><path class="cls-3" d="M274.76,916h68.69a4.1,4.1,0,0,0,3.93-2.89A12.57,12.57,0,0,0,348,909H271v3.24A3.77,3.77,0,0,0,274.76,916Z"/><path class="cls-6" d="M320.38,886.94a26.57,26.57,0,0,0,4.93-4.24c.86-1-.55-2.37-1.42-1.41a24.92,24.92,0,0,1-4.52,3.93c-1.06.71-.06,2.44,1,1.72Z"/><path class="cls-6" d="M323.44,893.4a15.1,15.1,0,0,0,6-5.18c.72-1.07-1-2.07-1.73-1a13,13,0,0,1-5.25,4.46c-1.16.56-.14,2.28,1,1.73Z"/><path class="cls-6" d="M328.35,898.65a14.11,14.11,0,0,0,5.47-5.63c.61-1.13-1.12-2.14-1.73-1a12.22,12.22,0,0,1-4.75,4.92,1,1,0,0,0,1,1.72Z"/><path class="cls-6" d="M334.76,902.74a16.25,16.25,0,0,0,3.39-4.78c.54-1.16-1.19-2.18-1.73-1a14.72,14.72,0,0,1-3.08,4.38c-.92.9.5,2.32,1.42,1.41Z"/><path class="cls-5" d="M491.68,850.8l13.25,49.55a3.76,3.76,0,0,0,4.61,2.67l66.36-17.74a4.09,4.09,0,0,0,3.05-3.75c.17-3.84-1-10-9.84-10.39-13-.57-31.49-12.43-31.88-43.35"/><path class="cls-3" d="M544.45,855.53c-4-6.43-6.82-15.07-7.17-26.31L507.8,842.66l-16.12,8.14,4.7,17.58Z"/><path class="cls-3" d="M509.54,903l66.36-17.74a4.12,4.12,0,0,0,3.05-3.81,12.79,12.79,0,0,0-.47-4.14l-74.39,19.89.84,3.13A3.76,3.76,0,0,0,509.54,903Z"/><path class="cls-6" d="M546.11,863.21a27.29,27.29,0,0,0,3.67-5.37c.59-1.14-1.14-2.16-1.73-1a24.83,24.83,0,0,1-3.35,5c-.85,1,.56,2.39,1.41,1.42Z"/><path class="cls-6" d="M550.74,868.65a15,15,0,0,0,4.42-6.55c.43-1.21-1.5-1.74-1.93-.53a13.16,13.16,0,0,1-3.91,5.67c-1,.84.44,2.25,1.42,1.41Z"/><path class="cls-6" d="M556.83,872.46a14.3,14.3,0,0,0,3.84-6.86c.29-1.25-1.63-1.78-1.93-.53a12.34,12.34,0,0,1-3.32,6,1,1,0,0,0,1.41,1.41Z"/><path class="cls-6" d="M564.08,874.76a16.44,16.44,0,0,0,2-5.51c.23-1.25-1.7-1.79-1.92-.53a14.89,14.89,0,0,1-1.85,5,1,1,0,0,0,1.73,1Z"/><path class="cls-7" d="M265.18,335.64s-76.67,56.42-76.67,93.49,85.9,85.14,85.9,85.14"/><path class="cls-8" d="M502.5,290.66a193.22,193.22,0,0,0-12.07,37.48c-1.06,5,6.65,7.17,7.72,2.12a183.09,183.09,0,0,1,11.26-35.56c.86-2,.58-4.3-1.43-5.48-1.7-1-4.61-.55-5.48,1.44Z"/><path class="cls-8" d="M489.9,319.66l30.75,18.07s21.1-29.43,2.7-38.8S489.9,319.66,489.9,319.66Z"/><path class="cls-9" d="M516.44,316.07s-14,10.12-24.43,43.31"/><path class="cls-10" d="M284.78,449.92s17,122.93,16.5,202.43-1.49,216.25-1.49,216.25"/><path class="cls-11" d="M298.53,445.12S420.36,586.49,442.68,640.24s75.09,210.19,75.09,210.19"/><circle class="cls-12" cx="301.28" cy="425.29" r="57.24"/><polyline class="cls-13" points="358.52 433.55 247.34 472.19 238.54 409.63"/><path class="cls-14" d="M326.83,286.67c-6.6,9.88-6.73,26.7-11.72,49"/><path class="cls-8" d="M317.21,245.63h0a32.44,32.44,0,0,1,32.44,32.44v6.47a24.36,24.36,0,0,1-24.36,24.36h0a24.36,24.36,0,0,1-24.36-24.36V261.91a16.28,16.28,0,0,1,16.28-16.28Z" transform="translate(680.46 515.07) rotate(173.36)"/><path class="cls-8" d="M352.35,283c0,2.55-2.66,6-5.68,5.41l.59-7c0-.48,2.41-.94,2.79-.9A2.31,2.31,0,0,1,352.35,283Z"/><path class="cls-15" d="M238,338l-2,79.53a7.45,7.45,0,0,0,6.91,7.62l117.37,8.57a7.45,7.45,0,0,0,7.6-5l25-73.45a25.29,25.29,0,0,0-21.31-33.29l-103-10.81A27.71,27.71,0,0,0,238,338Z"/><path class="cls-6" d="M324.06,471a168.79,168.79,0,0,0,16.65-18.69c.79-1-.95-2-1.72-1a166.85,166.85,0,0,1-16.34,18.29c-.93.89.48,2.31,1.41,1.41Z"/><path class="cls-6" d="M350.82,286.67s-2.78-.51-7.94,5.52c-2.55,3-5.28-6.88-4.83-15.83a6.52,6.52,0,0,1,1.44-3.78,13.22,13.22,0,0,0,1.88-3.09,6.79,6.79,0,0,1,4-3.71c4.64-1.68,11.87-5.53,5.46-11.82-8.75-8.58-34-15.71-44.68-1.14a6.46,6.46,0,0,1-2,1.76,15.3,15.3,0,0,0-7.91,13.5c0,7.52,4.46,21.65,6.95,28.94a6.8,6.8,0,0,0,6.44,4.62h6.49a6.8,6.8,0,0,0,5.5-2.81l3.5-4.82a13.67,13.67,0,0,0,2.24-10.75c-.46-2.26-.44-4.68,1.13-6,3.48-2.89,5.65,5.69,6.3,12.75s-2.61,18.43,2.5,22.55C345.62,319.28,359,313,350.82,286.67Z"/><path class="cls-16" d="M365.81,345.4s82.37,55.57,91.37,52.32,53.21-77.62,53.21-77.62"/><path class="cls-17" d="M526.58,283.76s-7.64,1.5-15.44,17.83"/><path class="cls-17" d="M528.63,297s-7.5-2.61-12,6.19"/><path class="cls-17" d="M533.39,304.52s-7.5-2.61-12,6.19"/><path class="cls-17" d="M534.61,313.15s-7.5-2.6-12,6.19"/><path class="cls-6" d="M370.69,378.47a49.25,49.25,0,0,1,9.86,6.42c1,.83,2.4-.58,1.41-1.41a51.63,51.63,0,0,0-10.26-6.74c-1.15-.57-2.16,1.15-1,1.73Z"/><path class="cls-6" d="M452.12,370.68l5.5,3c1.13.62,2.14-1.11,1-1.73l-5.5-3c-1.13-.61-2.14,1.11-1,1.73Z"/><rect class="cls-18" x="531.05" y="390.76" width="148" height="2.47"/><rect class="cls-18" x="531.05" y="402.36" width="148" height="2.47"/><rect class="cls-18" x="531.05" y="413.96" width="89.72" height="2.47"/><rect class="cls-19" x="509.79" y="449.92" width="190.51" height="40.46" rx="14.85"/><circle class="cls-3" cx="535.44" cy="470.15" r="4.56"/><circle class="cls-3" cx="556.73" cy="470.15" r="4.56"/><circle class="cls-3" cx="578.01" cy="470.15" r="4.56"/><circle class="cls-3" cx="599.3" cy="470.15" r="4.56"/><circle class="cls-3" cx="620.58" cy="470.15" r="4.56"/><rect class="cls-19" x="509.79" y="523.87" width="190.51" height="40.46" rx="14.85"/><circle class="cls-3" cx="535.44" cy="544.1" r="4.56"/><circle class="cls-3" cx="556.73" cy="544.1" r="4.56"/><circle class="cls-3" cx="578.01" cy="544.1" r="4.56"/><circle class="cls-3" cx="599.3" cy="544.1" r="4.56"/><circle class="cls-3" cx="620.58" cy="544.1" r="4.56"/></svg>